<svg viewBox="60 840 1884 300" version="1.1" xmlns="http://www.w3.org/2000/svg" style="max-height: 500px" width="1884" height="300">
<path fill="#FEFEFE" d="m0 0h2e3v2e3h-2e3z" transform="translate(0)"/>
<path fill="#010204" d="m0 0h47l1 1 1 51 29 1v19l9-10 11-7 15-5 6-1h27l20 4 13 5 2 3-15 30-5-1-13-5-5-1h-18l-5 5 1 6 8 5 24 8 13 7 9 8 6 10 2 6 1 16 5-10 7-6 9-4 5-1h8l11 4 9 7 5 8 2 6v11l-3 10-7 9-9 6-8 2h-10l-9-3-9-7-6-9-3-11-5 10-4 5-11 7-13 5-10 2-9 1h-20l-17-3-8-3h-6l-10 4-12 2h-17l-12-3-8-4-9-8-8-16-2-9-1-11v-56h-13l1 6v96l-1 1h-48l-1-86-3-8-7-8-7-3h-14l-8 4-7 6-5 9-2 86h-48l-1-28-12 13-13 9-11 5-16 4-8 1h-20l-15-3-12-5-12-8-10-9-8-10-4-7-1 38h-48l-1-84-3-10-6-7-8-3h-14l-8 5-5 8-1 3-1 87-1 1h-48l-1-88-4-8-5-5-7-3h-14l-6 3-6 7-2 4-1 56-1 34h-48l-1-27-4 9-7 8-9 6-16 6-15 2h-22l-16-3-15-6-9-5-4-2-7 6-11 5-9 3-16 2h-21l-16-3-15-6-12-7-2-4 3-6-8 9-11 7-11 5-16 4-8 1h-19l-16-3-14-6-13-9-10-10-4-5v-2h-2l-2 8-5 8-7 7-16 8-14 3-9 1h-20l-17-3-15-6-9-5-2-2-4 1-8 6-12 5-13 3-9 1h-20l-17-3-15-6-9-5h-2l1 9-1 1h-48l-1-3 2-12-12 9-14 7-13 3h-16l-15-3-16-8-10-9-8-9-8-15-4-14-1-6v-20l4-17 8-16 8-11 9-8 14-8 14-4 15-1 19 3 12 5 13 9-1-12h49l1 118 11-19 3-6 5 1 11 7 12 5 5 1 13-1 4-4v-7l-5-5-26-11-13-9-6-5-6-10-2-7v-15l3-10 6-9 9-8 12-6 16-4h27l20 4 13 5 2 3-15 30-5-1-13-5-5-1h-18l-4 3-1 6 5 5 13 5 15 5 14 8 8 7 5 8 3 9 1 16v2l6-11 3-1 13 8 12 5 11 1 8-2 3-4v-7l-5-4-26-11-13-9-5-4-7-10-2-8v-14l4-13 7-9 7-6 12-6 11-3 6-1h26l20 4 15 6-2 6-13 26-5-1-13-5-5-1h-18l-5 5 1 6 8 5 24 8 13 7 6 4 1-11 5-15 8-13 9-10 8-7 11-7 13-5 10-2 15-1 21 3 16 6 13 9 7 7 7 11 4 8 2-11 6-12 8-8 12-7 14-4 5-1h27l20 4 13 5 1 4-12 26-1 3-6-1-13-5-5-1h-18l-5 5 1 6 8 5 24 8 14 8 8 7 6 10 3 13 1 9 4-9 5 1 11 7 12 5 11 1 8-2 3-4v-7l-5-4-26-11-13-9-5-4-7-10-2-8v-14l4-13 7-9 7-6 12-6 10-3 7-1h25l18 3 14 5 3 2-2 8-11 23-4 1-12-5-8-2h-18l-5 5 1 6 8 5 24 8 11 6 10 8 6 9 1 3 1-81 4-1 45 1 1 13 3-1 1-3 14-9 12-4 12-1 17 3 12 5 9 7 7 8v2l4-2 7-8 10-7 10-5 7-2h20l15 4 11 6 10 10 5 10 2 7 1 8 6-12 12-13 10-8 10-6 15-5 16-2 15 1 15 3 17 8 10 8 8 9 8 15 1 3v-42l1-1 48 1v11l-1 3 13-10 14-7 10-2 16 1 15 4 16 8 7 6v2h2l2 2v-18l1-1h19v-51z" transform="translate(1381,883)"/>
<path fill="#263E7C" d="m0 0 6 1 4 2h8l5-3h5l7 7 5 1 9-1 4 2 3 9 13 3 4 3 2 12 11 6 1 1v16l7 7-1 8-2 3v8l3 5-1 7-6 6v15l-8 5-4 3-2 11-3 3-9 2-5 4-4 6-2 2h-7l-6-1-7 6-2 3-6-1-9-4-10 5-4-1-10-8-4 1h-9l-8-11-14-4-2-12-3-3-9-5-1-5 1-3v-7l-7-8-1-1v-5l4-6v-6l-4-7v-5l8-7 1-6-2-5 1-6 11-6 3-12 4-3 3-1h8l2-5 4-7 5-1 10 1z" transform="translate(1806,920)"/>
<path fill="#020204" d="m0 0h25l16 3 12 5 6 4v3l-12 25-3 6-10-4-5-1h-17l-10 4-8 8-5 10-1 3v15l4 11 9 10 9 4 4 1h13l12-3 5-2 8 16 8 17-9 6-17 5-12 2h-18l-15-3-16-7-12-9-12-12-7-11-5-13-2-10v-17l2-10 5-13 6-10 9-10 7-7 14-9 13-5z" transform="translate(1687,932)"/>
<path fill="#FEFEFE" d="m0 0 8 10 13 9 12 6 19 8 4 4v7l-4 5-8 2-11-1-12-5-11-7-4-1-8 14-2 1-1-3-31-15-4 2-8 7-9 4-4 1h-18l-10-4-7-6-5-10v-8l2-1h99z" transform="translate(621,993)"/>
<path fill="#FEFEFE" d="m0 0h9l10 3 6 4 8 9 4 13v9l-3 10-6 8-7 6-8 3-11 1-11-2-10-6-6-9-3-8v-16l4-10 8-9 10-5z" transform="translate(170,973)"/>
<path fill="#020305" d="m0 0h8l11 4 9 7 5 8 2 6v11l-3 10-7 9-9 6-8 2h-10l-9-3-9-7-6-9-2-7-1-9 4-10 6-9 9-6z" transform="translate(1591,1017)"/>
<path fill="#FEFEFE" d="m0 0h25l2 16 4 8 9 9 14 9 24 10 6 5v7l-4 5-8 2-11-1-12-5-11-7-4-1-7 12-3-3-1-6-7 3h-9l-5-5-2-6z" transform="translate(1429,973)"/>
<path fill="#FEFEFE" d="m0 0h99v30l-19-9-14-7-4 2-8 7-5 3-8 2h-18l-10-4-7-6-4-7-2-7z" transform="translate(1118,1013)"/>
<path fill="#FEFEFE" d="m0 0 5 1 3 3 1 4-7 7-8 7-7 8h-2v2h-2v2h-2v2l-8 7-4 5-8 7-15 15-4-1-4-5-3-2v-2l-4-2-17-17 1-5 4-4 6 2 19 19 4-1z" transform="translate(1858,966)"/>
<path fill="#FEFEFE" d="m0 0h8l10 3 8 6 4 8 1 5-9 1h-43l-1-5 4-8 8-7z" transform="translate(543,963)"/>
<path fill="#FEFEFE" d="m0 0h8l10 3 8 6 4 8 1 5-2 1h-50l-1-5 4-8 8-7z" transform="translate(1142,963)"/>
</svg>