<svg version="1.1" id="Layer_1" xmlns="http://www.w3.org/2000/svg" xmlns:xlink="http://www.w3.org/1999/xlink" x="0px" y="0px"
	 width="100%" viewBox="0 0 500 68" enable-background="new 0 0 500 68" xml:space="preserve">
<path fill="#FDFDFD" opacity="1.000000" stroke="none" 
	d="
M482.001709,69.000000 
	C321.334686,69.000000 161.168152,69.000000 1.001216,69.000000 
	C1.000811,46.333893 1.000811,23.667786 1.000405,1.001259 
	C167.665970,1.000839 334.331940,1.000839 500.998413,1.000420 
	C500.998962,23.665949 500.998962,46.331898 500.999481,68.998924 
	C494.834076,69.000000 488.668121,69.000000 482.001709,69.000000 
M209.275146,18.929913 
	C209.275146,18.929913 208.919052,19.035269 208.136337,18.996914 
	C204.894104,18.329676 201.672134,17.232693 198.405701,17.078621 
	C189.819672,16.673630 183.992828,20.132135 182.862656,25.798492 
	C181.598053,32.138821 184.183594,35.305943 193.234482,39.351242 
	C194.806671,40.053940 195.775162,42.107349 197.022507,43.536888 
	C195.053665,43.887836 193.050049,44.633831 191.127029,44.464455 
	C189.594894,44.329502 188.218750,42.905937 186.662842,42.383675 
	C185.673447,42.051575 184.481949,42.321564 183.381088,42.321564 
	C183.752792,42.077137 184.124512,41.832714 184.496216,41.588287 
	C182.113632,38.695900 180.149323,35.243660 177.233429,33.065048 
	C174.180634,30.784143 170.213776,29.726658 166.646439,28.134424 
	C166.862610,27.310143 167.078766,26.485861 167.294937,25.661579 
	C171.134476,25.995262 174.974014,26.328943 179.059387,26.683992 
	C180.087418,24.592731 181.237106,22.253971 183.198013,18.264994 
	C176.553513,17.981071 170.854568,16.741831 165.642487,17.831436 
	C161.509384,18.695480 157.972794,22.412949 153.942520,25.010923 
	C149.570404,18.260973 142.153473,15.656902 133.453613,17.437263 
	C124.557625,19.257763 119.700806,25.501835 118.021217,34.257767 
	C113.297310,32.097443 108.976646,30.121525 104.655975,28.145607 
	C104.848938,27.334019 105.041901,26.522429 105.234856,25.710838 
	C109.066299,26.007936 112.897736,26.305035 117.066765,26.628309 
	C118.042984,24.662586 119.201157,22.330448 120.530670,19.653318 
	C113.254570,16.575880 106.373497,15.703102 99.452255,18.971693 
	C93.791969,21.644789 91.441078,28.788897 95.138054,33.170666 
	C97.272812,35.700832 100.806572,37.013298 103.567024,39.066914 
	C105.221878,40.298027 106.599823,41.901363 108.102226,43.337399 
	C105.717735,43.581253 103.323112,44.066780 100.953011,43.967388 
	C99.761261,43.917408 98.674706,42.574558 97.427391,42.245838 
	C96.444794,41.986885 95.288925,42.385365 94.046143,42.508003 
	C93.946007,37.819111 91.580017,34.429379 87.280403,32.470119 
	C85.172272,31.509478 82.830086,31.038019 80.780983,29.982012 
	C79.660522,29.404585 78.930244,28.070044 78.024010,27.076923 
	C79.283051,26.528074 80.578400,25.454756 81.793610,25.538902 
	C84.371178,25.717377 86.906990,26.498905 89.602791,27.063070 
	C90.816742,24.588980 91.963112,22.252625 93.238983,19.652334 
	C86.206841,16.638279 79.456367,15.713316 72.655220,18.763094 
	C64.735428,22.314493 63.900311,31.424242 71.032173,36.275211 
	C73.201065,37.750454 75.885513,38.454865 78.113327,39.861557 
	C79.298454,40.609882 80.011902,42.105228 80.938255,43.263386 
	C79.512291,43.837784 77.929565,45.118305 76.692108,44.843586 
	C73.880020,44.219303 71.237640,42.830570 68.318962,41.670135 
	C67.532059,43.192734 66.781097,44.645779 65.065788,46.071484 
	C65.065788,36.839130 65.065788,27.606775 65.065788,17.604956 
	C59.813988,18.067934 55.604343,18.439039 49.319721,18.993065 
	C42.058441,15.164726 33.782276,16.116497 28.047585,22.849285 
	C22.237801,29.670233 21.834105,40.968132 27.834320,47.618412 
	C30.246248,50.291656 33.909138,53.055038 37.242565,53.389984 
	C42.139633,53.882050 47.251884,52.232605 52.657837,51.438946 
	C53.690956,53.656151 62.443569,54.334896 64.627975,51.256321 
	C64.808807,51.001465 64.818657,50.625286 65.565956,50.750469 
	C74.375069,55.447124 83.036514,55.344078 89.811363,51.092964 
	C96.772133,52.203461 102.203148,53.584961 107.680649,53.803932 
	C113.566856,54.039238 118.488083,51.419529 121.254539,45.562973 
	C125.427544,50.700981 130.262405,54.253922 136.454544,53.829643 
	C142.007324,53.449173 147.464279,51.669743 154.183533,50.249638 
	C162.104324,55.230122 169.633392,55.669846 179.094070,51.018627 
	C179.910034,50.617462 181.231903,50.520103 182.021179,50.899944 
	C191.939453,55.673157 201.301651,55.819031 209.817520,47.629200 
	C209.901917,49.522705 209.973862,51.137081 210.046585,52.768822 
	C214.080856,52.768822 217.842865,52.768822 221.967194,52.768822 
	C221.967194,45.910130 221.631729,39.255848 222.167084,32.672382 
	C222.332443,30.638885 224.602280,27.597586 226.394409,27.198257 
	C228.284836,26.777029 231.143524,28.553711 232.829727,30.157932 
	C233.863937,31.141857 233.683502,33.602188 233.713516,35.405098 
	C233.809494,41.170357 233.749146,46.938217 233.749146,52.725655 
	C238.016266,52.725655 241.755417,52.725655 245.845001,52.725655 
	C245.845001,45.817863 245.507294,39.158417 246.048370,32.571156 
	C246.213226,30.564140 248.557571,27.539995 250.340332,27.187086 
	C252.252213,26.808613 255.171356,28.578529 256.711853,30.267429 
	C257.791351,31.450933 257.445831,34.069057 257.474792,36.050320 
	C257.556610,41.641186 257.503387,47.234032 257.503387,52.658291 
	C261.923706,52.658291 265.667755,52.658291 269.467438,52.658291 
	C269.600433,49.918362 269.717041,47.515968 269.850311,44.770649 
	C281.383667,57.801327 295.053558,56.022545 305.076172,46.556732 
	C305.200623,48.673885 305.313538,50.594437 305.436584,52.688084 
	C309.479523,52.688084 313.363831,52.688084 317.367157,52.688084 
	C317.367157,46.540695 317.298187,40.710060 317.388123,34.881878 
	C317.465576,29.862923 320.534393,26.347240 324.598846,26.371819 
	C328.501801,26.395418 330.865570,29.534752 330.909637,34.918514 
	C330.958252,40.856041 330.920746,46.794277 330.920746,52.751804 
	C335.188995,52.751804 338.930634,52.751804 342.975708,52.751804 
	C342.975708,48.701408 342.978027,44.901737 342.975067,41.102070 
	C342.972076,37.270046 342.874786,33.434460 343.027802,29.608791 
	C343.061279,28.771383 343.978943,27.969334 344.489410,27.150997 
	C345.021301,27.968870 345.976013,28.768059 346.013123,29.607800 
	C346.189484,33.599144 345.940216,37.611507 346.166504,41.597996 
	C346.718536,51.324104 353.040375,55.736454 362.582611,53.583271 
	C365.151978,53.003506 367.994354,53.186794 370.649384,53.517635 
	C378.599609,54.508308 386.184021,54.593204 391.616272,47.214783 
	C394.080841,52.683563 397.318604,54.925835 401.419586,53.805882 
	C406.368774,52.454288 407.618011,48.782364 407.749573,44.029819 
	C408.890808,45.139156 410.090790,46.194710 411.163696,47.366589 
	C418.028687,54.865013 429.570679,56.294300 437.462097,50.449615 
	C436.247986,47.992344 435.018097,45.503197 433.722015,42.880096 
	C428.886139,44.432842 424.284576,45.187057 421.016663,40.423538 
	C418.832550,37.239830 418.794586,33.809864 420.988739,30.609285 
	C424.250549,25.851242 428.818176,26.487404 433.763733,28.153854 
	C435.066742,25.458656 436.313629,22.879618 437.721680,19.967121 
	C430.041351,16.269367 422.898407,15.529556 415.875031,19.864407 
	C409.030609,24.088787 405.784790,30.240864 406.843109,38.427521 
	C407.033173,39.897892 406.930023,41.406174 406.277679,42.756931 
	C402.569305,37.067913 398.418243,36.905266 392.417328,42.213860 
	C391.155457,36.012486 389.047638,33.546902 383.043610,31.349281 
	C381.485962,30.779160 379.793823,30.502653 378.339874,29.750322 
	C377.444427,29.286968 376.883057,28.177931 376.171692,27.358797 
	C377.192871,26.718992 378.251282,25.489847 379.228119,25.551596 
	C381.987946,25.726048 384.714355,26.429901 387.860107,26.998590 
	C389.003021,24.726271 390.229309,22.288267 391.593933,19.575193 
	C382.321625,16.087318 373.943054,15.366998 366.057953,21.941629 
	C365.765808,20.505957 365.522736,19.311361 365.235199,17.898312 
	C362.835052,17.898312 360.717438,17.898312 358.193176,17.898312 
	C358.193176,13.541187 358.193176,9.461087 358.193176,5.337424 
	C353.917419,5.337424 350.065033,5.337424 345.983185,5.337424 
	C345.983185,9.670541 345.983185,13.629513 345.983185,17.926359 
	C344.330902,17.926359 342.906952,17.926359 341.241455,17.926359 
	C341.110901,19.418537 341.008606,20.588066 340.874054,22.126080 
	C333.183563,16.214132 325.657043,14.778635 318.577057,20.439447 
	C314.222717,16.160713 309.481201,18.812447 304.886658,17.867764 
	C304.886658,20.989258 304.886658,23.535538 304.886658,27.105963 
	C300.409943,19.656860 294.446930,16.936823 286.950500,16.961416 
	C279.323212,16.986439 274.151581,21.333311 269.498108,27.316793 
	C268.156525,21.655254 264.954895,18.895489 260.260162,17.544847 
	C253.705414,15.659090 248.746231,18.451258 245.441818,21.955271 
	C241.011368,20.108915 237.389023,17.580574 233.604538,17.308617 
	C229.817719,17.036489 225.868835,19.019527 221.914993,20.033529 
	C221.065659,17.594217 215.512695,16.825113 209.275146,18.929913 
M458.747650,54.237019 
	C459.881165,53.605221 460.944397,52.702457 462.160004,52.387119 
	C468.441681,50.757614 476.043396,42.758297 475.799866,36.949047 
	C475.491730,29.598927 474.239838,22.680588 466.880859,18.180254 
	C461.674591,14.996433 450.469360,12.961882 446.255096,16.454943 
	C440.653168,21.098171 435.786713,26.024397 436.394714,34.681080 
	C436.963989,42.786770 441.294495,50.419636 449.681335,52.428406 
	C452.400085,53.079590 455.162018,53.550671 458.747650,54.237019 
z"/>
<path fill="#050505" opacity="1.000000" stroke="none" 
	d="
M66.030144,46.098824 
	C66.781097,44.645779 67.532059,43.192734 68.318962,41.670135 
	C71.237640,42.830570 73.880020,44.219303 76.692108,44.843586 
	C77.929565,45.118305 79.512291,43.837784 80.938255,43.263386 
	C80.011902,42.105228 79.298454,40.609882 78.113327,39.861557 
	C75.885513,38.454865 73.201065,37.750454 71.032173,36.275211 
	C63.900311,31.424242 64.735428,22.314493 72.655220,18.763094 
	C79.456367,15.713316 86.206841,16.638279 93.238983,19.652334 
	C91.963112,22.252625 90.816742,24.588980 89.602791,27.063070 
	C86.906990,26.498905 84.371178,25.717377 81.793610,25.538902 
	C80.578400,25.454756 79.283051,26.528074 78.024010,27.076923 
	C78.930244,28.070044 79.660522,29.404585 80.780983,29.982012 
	C82.830086,31.038019 85.172272,31.509478 87.280403,32.470119 
	C91.580017,34.429379 93.946007,37.819111 94.046143,42.508003 
	C95.288925,42.385365 96.444794,41.986885 97.427391,42.245838 
	C98.674706,42.574558 99.761261,43.917408 100.953011,43.967388 
	C103.323112,44.066780 105.717735,43.581253 108.102226,43.337402 
	C106.599823,41.901363 105.221878,40.298027 103.567024,39.066914 
	C100.806572,37.013298 97.272812,35.700832 95.138054,33.170666 
	C91.441078,28.788897 93.791969,21.644789 99.452255,18.971693 
	C106.373497,15.703102 113.254570,16.575880 120.530670,19.653318 
	C119.201157,22.330448 118.042984,24.662586 117.066765,26.628309 
	C112.897736,26.305035 109.066299,26.007936 105.234856,25.710838 
	C105.041901,26.522429 104.848938,27.334019 104.655975,28.145607 
	C108.976646,30.121525 113.297310,32.097443 118.021217,34.257767 
	C119.700806,25.501835 124.557625,19.257763 133.453613,17.437263 
	C142.153473,15.656902 149.570404,18.260973 153.942520,25.010923 
	C157.972794,22.412949 161.509384,18.695480 165.642487,17.831436 
	C170.854568,16.741831 176.553513,17.981071 183.198013,18.264994 
	C181.237106,22.253971 180.087418,24.592731 179.059387,26.683992 
	C174.974014,26.328943 171.134476,25.995262 167.294937,25.661579 
	C167.078766,26.485861 166.862610,27.310143 166.646439,28.134424 
	C170.213776,29.726658 174.180634,30.784143 177.233429,33.065048 
	C180.149323,35.243660 182.113632,38.695900 184.496216,41.588287 
	C184.124512,41.832714 183.752792,42.077137 183.381088,42.321564 
	C184.481949,42.321564 185.673447,42.051575 186.662842,42.383675 
	C188.218750,42.905937 189.594894,44.329502 191.127029,44.464455 
	C193.050049,44.633831 195.053665,43.887836 197.022507,43.536888 
	C195.775162,42.107349 194.806671,40.053940 193.234482,39.351242 
	C184.183594,35.305943 181.598053,32.138821 182.862656,25.798492 
	C183.992828,20.132135 189.819672,16.673630 198.405701,17.078621 
	C201.672134,17.232693 204.894104,18.329676 208.614990,19.389370 
	C207.964340,22.294544 206.835052,24.807261 205.786865,27.139490 
	C203.018616,26.477432 200.780319,25.627951 198.504944,25.513073 
	C197.088287,25.441549 195.615555,26.480965 194.167984,27.021797 
	C195.220459,28.077431 196.101639,29.447414 197.356674,30.131300 
	C201.566544,32.425308 205.909805,34.474495 209.644089,36.338856 
	C209.644089,31.283327 209.644089,25.127754 209.644089,18.972181 
	C215.512695,16.825113 221.065659,17.594217 221.914993,20.033529 
	C225.868835,19.019527 229.817719,17.036489 233.604538,17.308617 
	C237.389023,17.580574 241.011368,20.108915 245.441818,21.955271 
	C248.746231,18.451258 253.705414,15.659090 260.260162,17.544847 
	C264.954895,18.895489 268.156525,21.655254 269.498108,27.316793 
	C274.151581,21.333311 279.323212,16.986439 286.950500,16.961416 
	C294.446930,16.936823 300.409943,19.656860 304.886658,27.105963 
	C304.886658,23.535538 304.886658,20.989258 304.886658,17.867764 
	C309.481201,18.812447 314.222717,16.160713 318.577057,20.439447 
	C325.657043,14.778635 333.183563,16.214132 340.874054,22.126080 
	C341.008606,20.588066 341.110901,19.418537 341.241455,17.926359 
	C342.906952,17.926359 344.330902,17.926359 345.983185,17.926359 
	C345.983185,13.629513 345.983185,9.670541 345.983185,5.337424 
	C350.065033,5.337424 353.917419,5.337424 358.193176,5.337424 
	C358.193176,9.461087 358.193176,13.541187 358.193176,17.898312 
	C360.717438,17.898312 362.835052,17.898312 365.235199,17.898312 
	C365.522736,19.311361 365.765808,20.505957 366.057953,21.941629 
	C373.943054,15.366998 382.321625,16.087318 391.593933,19.575193 
	C390.229309,22.288267 389.003021,24.726271 387.860107,26.998590 
	C384.714355,26.429901 381.987946,25.726048 379.228119,25.551596 
	C378.251282,25.489847 377.192871,26.718992 376.171692,27.358795 
	C376.883057,28.177931 377.444427,29.286968 378.339874,29.750322 
	C379.793823,30.502653 381.485962,30.779160 383.043610,31.349281 
	C389.047638,33.546902 391.155457,36.012486 392.417328,42.213860 
	C398.418243,36.905266 402.569305,37.067913 406.640808,43.136108 
	C407.019409,43.721283 407.034912,43.927277 407.050415,44.133274 
	C407.618011,48.782364 406.368774,52.454288 401.419586,53.805882 
	C397.318604,54.925835 394.080841,52.683563 391.616272,47.214783 
	C386.184021,54.593204 378.599609,54.508308 370.649384,53.517635 
	C367.994354,53.186794 365.151978,53.003506 362.582611,53.583271 
	C353.040375,55.736454 346.718536,51.324104 346.166504,41.597996 
	C345.940216,37.611507 346.189484,33.599144 346.013123,29.607800 
	C345.976013,28.768059 345.021301,27.968870 344.489410,27.150999 
	C343.978943,27.969334 343.061279,28.771383 343.027802,29.608791 
	C342.874786,33.434460 342.972076,37.270046 342.975067,41.102070 
	C342.978027,44.901737 342.975708,48.701408 342.975708,52.751804 
	C338.930634,52.751804 335.188995,52.751804 330.920746,52.751804 
	C330.920746,46.794277 330.958252,40.856041 330.909637,34.918514 
	C330.865570,29.534752 328.501801,26.395418 324.598846,26.371819 
	C320.534393,26.347240 317.465576,29.862923 317.388123,34.881878 
	C317.298187,40.710060 317.367157,46.540695 317.367157,52.688084 
	C313.363831,52.688084 309.479523,52.688084 305.436584,52.688084 
	C305.313538,50.594437 305.200623,48.673885 305.076172,46.556732 
	C295.053558,56.022545 281.383667,57.801327 269.850311,44.770649 
	C269.717041,47.515968 269.600433,49.918362 269.467438,52.658291 
	C265.667755,52.658291 261.923706,52.658291 257.503387,52.658291 
	C257.503387,47.234032 257.556610,41.641186 257.474792,36.050320 
	C257.445831,34.069057 257.791351,31.450933 256.711853,30.267429 
	C255.171356,28.578529 252.252213,26.808613 250.340332,27.187086 
	C248.557571,27.539995 246.213226,30.564140 246.048370,32.571156 
	C245.507294,39.158417 245.845001,45.817863 245.845001,52.725655 
	C241.755417,52.725655 238.016266,52.725655 233.749146,52.725655 
	C233.749146,46.938217 233.809494,41.170357 233.713516,35.405098 
	C233.683502,33.602188 233.863937,31.141857 232.829727,30.157932 
	C231.143524,28.553711 228.284836,26.777029 226.394409,27.198257 
	C224.602280,27.597586 222.332443,30.638885 222.167084,32.672382 
	C221.631729,39.255848 221.967194,45.910130 221.967194,52.768822 
	C217.842865,52.768822 214.080856,52.768822 210.046585,52.768822 
	C209.973862,51.137081 209.901917,49.522705 209.817520,47.629200 
	C201.301651,55.819031 191.939453,55.673157 182.021179,50.899944 
	C181.231903,50.520103 179.910034,50.617462 179.094070,51.018627 
	C169.633392,55.669846 162.104324,55.230122 154.183533,50.249638 
	C147.464279,51.669743 142.007324,53.449173 136.454544,53.829643 
	C130.262405,54.253922 125.427544,50.700981 121.254539,45.562973 
	C118.488083,51.419529 113.566856,54.039238 107.680649,53.803932 
	C102.203148,53.584961 96.772133,52.203461 89.811363,51.092964 
	C83.036514,55.344078 74.375069,55.447124 65.281845,50.218620 
	C65.341866,48.490784 65.686005,47.294804 66.030144,46.098824 
M167.411530,45.011395 
	C168.349442,44.260616 169.287354,43.509838 170.225281,42.759060 
	C169.438217,41.817856 168.831604,40.556992 167.831818,39.992554 
	C164.134567,37.905277 160.307465,36.047997 156.386429,34.030830 
	C156.228806,34.777481 155.990433,35.906643 155.743332,37.077209 
	C151.392670,37.077209 147.402588,37.077209 143.412521,37.077209 
	C139.330627,37.077209 135.248734,37.077209 131.100952,37.077209 
	C132.201355,44.018463 138.629181,46.784168 144.242401,42.759003 
	C146.769073,40.947155 148.486938,40.989017 150.829147,42.417336 
	C152.328522,43.331684 154.004349,43.956715 155.539032,44.682125 
	C156.546585,43.483158 157.372650,42.500164 157.847992,41.934525 
	C161.025650,43.064930 163.806076,44.054031 167.411530,45.011395 
M379.118317,41.846436 
	C377.634338,40.905239 376.251221,39.713310 374.648041,39.068459 
	C369.190430,36.873264 364.517120,34.078445 364.316498,27.471085 
	C362.122009,27.471085 360.254730,27.471085 358.151917,27.471085 
	C358.151917,31.453808 358.049957,35.079632 358.185547,38.696548 
	C358.286194,41.381203 358.934998,43.862007 362.591064,42.850487 
	C366.770752,41.694092 370.354431,43.224892 374.152283,44.712883 
	C375.391357,45.198349 377.523529,43.404396 379.118317,41.846436 
M287.611298,37.078518 
	C285.393890,37.078518 283.176483,37.078518 280.889740,37.078518 
	C281.947266,43.665211 287.951141,46.714245 293.158325,43.183937 
	C296.541077,40.890560 298.945374,41.333965 301.921234,43.068817 
	C302.815033,43.589859 303.899078,43.784561 305.079102,44.191994 
	C305.079102,41.671093 305.079102,39.581062 305.079102,37.078522 
	C299.437958,37.078522 294.012421,37.078522 287.611298,37.078518 
M138.464920,30.572903 
	C140.357742,30.572903 142.250580,30.572903 144.447662,30.572903 
	C143.425430,25.903940 140.864136,24.663044 137.301041,24.857220 
	C133.957733,25.039419 131.876495,26.588856 131.200577,30.572828 
	C133.660263,30.572828 135.624359,30.572828 138.464920,30.572903 
M282.423950,26.816662 
	C281.924927,27.906944 281.425934,28.997225 280.894440,30.158472 
	C285.647552,30.158472 289.811829,30.158472 294.135254,30.158472 
	C291.711243,24.422380 288.895142,23.525112 282.423950,26.816662 
z"/>
<path fill="#080808" opacity="1.000000" stroke="none" 
	d="
M65.547966,46.085152 
	C65.686005,47.294804 65.341866,48.490784 64.952843,49.996124 
	C64.818657,50.625286 64.808807,51.001465 64.627975,51.256321 
	C62.443569,54.334896 53.690956,53.656151 52.657837,51.438946 
	C47.251884,52.232605 42.139633,53.882050 37.242565,53.389984 
	C33.909138,53.055038 30.246248,50.291656 27.834320,47.618412 
	C21.834105,40.968132 22.237801,29.670233 28.047585,22.849285 
	C33.782276,16.116497 42.058441,15.164726 49.319721,18.993065 
	C55.604343,18.439039 59.813988,18.067934 65.065788,17.604956 
	C65.065788,27.606775 65.065788,36.839130 65.547966,46.085152 
M40.850876,28.105589 
	C35.020836,32.706867 35.030884,40.356880 40.936066,42.941963 
	C44.435806,44.474030 47.832901,44.052868 50.492867,41.200447 
	C53.293076,38.197636 53.611008,34.559578 51.478130,31.148682 
	C49.207584,27.517614 45.731720,26.385635 40.850876,28.105589 
z"/>
<path fill="#1653EE" opacity="1.000000" stroke="none" 
	d="
M458.325928,54.170578 
	C455.162018,53.550671 452.400085,53.079590 449.681335,52.428406 
	C441.294495,50.419636 436.963989,42.786770 436.394714,34.681080 
	C435.786713,26.024397 440.653168,21.098171 446.255096,16.454943 
	C450.469360,12.961882 461.674591,14.996433 466.880859,18.180254 
	C474.239838,22.680588 475.491730,29.598927 475.799866,36.949047 
	C476.043396,42.758297 468.441681,50.757614 462.160004,52.387119 
	C460.944397,52.702457 459.881165,53.605221 458.325928,54.170578 
M465.844604,25.820250 
	C461.162964,30.198263 456.481323,34.576275 452.024994,38.743568 
	C448.988586,37.787579 448.191315,33.174881 444.292511,34.143940 
	C447.172394,37.334549 449.637268,40.065411 452.438263,43.168613 
	C456.963287,38.511379 461.522369,33.924862 465.913727,29.183044 
	C466.556396,28.489103 466.400696,27.055803 465.844604,25.820250 
z"/>
<path fill="#070707" opacity="1.000000" stroke="none" 
	d="
M407.399994,44.081547 
	C407.034912,43.927277 407.019409,43.721283 406.983063,43.206120 
	C406.930023,41.406174 407.033173,39.897892 406.843109,38.427521 
	C405.784790,30.240864 409.030609,24.088787 415.875031,19.864407 
	C422.898407,15.529556 430.041351,16.269367 437.721680,19.967121 
	C436.313629,22.879618 435.066742,25.458656 433.763733,28.153854 
	C428.818176,26.487404 424.250549,25.851242 420.988739,30.609285 
	C418.794586,33.809864 418.832550,37.239830 421.016663,40.423538 
	C424.284576,45.187057 428.886139,44.432842 433.722015,42.880096 
	C435.018097,45.503197 436.247986,47.992344 437.462097,50.449615 
	C429.570679,56.294300 418.028687,54.865013 411.163696,47.366589 
	C410.090790,46.194710 408.890808,45.139156 407.399994,44.081547 
z"/>
<path fill="#ECECEC" opacity="1.000000" stroke="none" 
	d="
M209.459625,18.951046 
	C209.644089,25.127754 209.644089,31.283327 209.644089,36.338856 
	C205.909805,34.474495 201.566544,32.425308 197.356674,30.131300 
	C196.101639,29.447414 195.220459,28.077431 194.167984,27.021797 
	C195.615555,26.480965 197.088287,25.441549 198.504944,25.513073 
	C200.780319,25.627951 203.018616,26.477432 205.786865,27.139490 
	C206.835052,24.807261 207.964340,22.294544 209.006348,19.408546 
	C208.919052,19.035269 209.275146,18.929913 209.459625,18.951046 
z"/>
<path fill="#F3F3F3" opacity="1.000000" stroke="none" 
	d="
M166.999023,45.027264 
	C163.806076,44.054031 161.025650,43.064930 157.847992,41.934525 
	C157.372650,42.500164 156.546585,43.483158 155.539032,44.682125 
	C154.004349,43.956715 152.328522,43.331684 150.829147,42.417336 
	C148.486938,40.989017 146.769073,40.947155 144.242401,42.759003 
	C138.629181,46.784168 132.201355,44.018463 131.100952,37.077209 
	C135.248734,37.077209 139.330627,37.077209 143.412521,37.077209 
	C147.402588,37.077209 151.392670,37.077209 155.743332,37.077209 
	C155.990433,35.906643 156.228806,34.777481 156.386429,34.030830 
	C160.307465,36.047997 164.134567,37.905277 167.831818,39.992554 
	C168.831604,40.556992 169.438217,41.817856 170.225281,42.759060 
	C169.287354,43.509838 168.349442,44.260616 166.999023,45.027264 
z"/>
<path fill="#F1F1F1" opacity="1.000000" stroke="none" 
	d="
M379.182770,42.249687 
	C377.523529,43.404396 375.391357,45.198349 374.152283,44.712883 
	C370.354431,43.224892 366.770752,41.694092 362.591064,42.850487 
	C358.934998,43.862007 358.286194,41.381203 358.185547,38.696548 
	C358.049957,35.079632 358.151917,31.453808 358.151917,27.471085 
	C360.254730,27.471085 362.122009,27.471085 364.316498,27.471085 
	C364.517120,34.078445 369.190430,36.873264 374.648041,39.068459 
	C376.251221,39.713310 377.634338,40.905239 379.182770,42.249687 
z"/>
<path fill="#F3F3F3" opacity="1.000000" stroke="none" 
	d="
M288.099121,37.078522 
	C294.012421,37.078522 299.437958,37.078522 305.079102,37.078522 
	C305.079102,39.581062 305.079102,41.671093 305.079102,44.191994 
	C303.899078,43.784561 302.815033,43.589859 301.921234,43.068817 
	C298.945374,41.333965 296.541077,40.890560 293.158325,43.183937 
	C287.951141,46.714245 281.947266,43.665211 280.889740,37.078518 
	C283.176483,37.078518 285.393890,37.078518 288.099121,37.078522 
z"/>
<path fill="#DEDEDE" opacity="1.000000" stroke="none" 
	d="
M138.026672,30.572865 
	C135.624359,30.572828 133.660263,30.572828 131.200577,30.572828 
	C131.876495,26.588856 133.957733,25.039419 137.301041,24.857220 
	C140.864136,24.663044 143.425430,25.903940 144.447662,30.572903 
	C142.250580,30.572903 140.357742,30.572903 138.026672,30.572865 
z"/>
<path fill="#DEDEDE" opacity="1.000000" stroke="none" 
	d="
M282.704468,26.531296 
	C288.895142,23.525112 291.711243,24.422380 294.135254,30.158472 
	C289.811829,30.158472 285.647552,30.158472 280.894440,30.158472 
	C281.425934,28.997225 281.924927,27.906944 282.704468,26.531296 
z"/>
<path fill="#F5F5F5" opacity="1.000000" stroke="none" 
	d="
M41.213566,27.983627 
	C45.731720,26.385635 49.207584,27.517614 51.478130,31.148682 
	C53.611008,34.559578 53.293076,38.197636 50.492867,41.200447 
	C47.832901,44.052868 44.435806,44.474030 40.936066,42.941963 
	C35.030884,40.356880 35.020836,32.706867 41.213566,27.983627 
z"/>
<path fill="#ECF1FE" opacity="1.000000" stroke="none" 
	d="
M466.229492,25.892435 
	C466.400696,27.055803 466.556396,28.489103 465.913727,29.183044 
	C461.522369,33.924862 456.963287,38.511379 452.438263,43.168613 
	C449.637268,40.065411 447.172394,37.334549 444.292511,34.143940 
	C448.191315,33.174881 448.988586,37.787579 452.024994,38.743568 
	C456.481323,34.576275 461.162964,30.198263 466.229492,25.892435 
z"/>
</svg>